<svg xmlns="http://www.w3.org/2000/svg" width="1200" height="800" viewBox="0 0 1200 800" role="img" aria-labelledby="title desc"><title id="title">A meaningful journey</title><desc id="desc">A couple sharing a quiet sunset beside a lake.</desc><defs><linearGradient id="sky" x1="0" y1="0" x2="0" y2="1"><stop stop-color="#dfb6a5"/><stop offset=".48" stop-color="#efc79a"/><stop offset="1" stop-color="#8b6755"/></linearGradient><radialGradient id="sun"><stop stop-color="#fff4c5"/><stop offset="1" stop-color="#e8a55c" stop-opacity=".1"/></radialGradient></defs><rect width="1200" height="800" fill="url(#sky)"/><circle cx="600" cy="310" r="150" fill="url(#sun)"/><path d="M0 520Q210 450 400 530T790 520t410-30v310H0Z" fill="#7d6355" opacity=".45"/><path d="M0 595q250-50 470 3t730-18v220H0Z" fill="#554a42" opacity=".62"/><path d="M0 668q270 36 528-2t672 5v129H0Z" fill="#342f2b"/><g fill="#292725"><circle cx="532" cy="449" r="28"/><path d="M497 585q6-110 35-111t35 111l-7 121h-57Z"/><circle cx="648" cy="443" r="30"/><path d="M611 585q5-115 37-115t39 115l-5 121h-66Z"/><path d="m550 508 75 3 3 20-80 5Z"/><path d="m511 702-30 78h39l18-76m123-2 32 78h-40l-20-76"/></g><g fill="#3d3631" opacity=".75"><path d="M0 560q130-115 272-8-156-41-272 83Z"/><path d="M1200 545q-131-109-270-5 154-39 270 80Z"/></g></svg>
